<mxfile host="app.diagrams.net" agent="Mozilla/5.0 (Windows NT 10.0; Win64; x64) AppleWebKit/537.36 (KHTML, like Gecko) Chrome/139.0.0.0 Safari/537.36" version="28.2.5">
  <diagram name="uml_komponent" id="j5DT4sjHstubytPbuCSf">
    <mxGraphModel dx="2587" dy="1978" grid="1" gridSize="10" guides="1" tooltips="1" connect="1" arrows="1" fold="1" page="1" pageScale="1" pageWidth="850" pageHeight="1100" math="0" shadow="0">
      <root>
        <mxCell id="0" />
        <mxCell id="1" parent="0" />
        <mxCell id="CRshSJ_s5ZqZg1Ph7NOT-1" value="&lt;font&gt;Externé systémy&lt;/font&gt;" style="html=1;dropTarget=0;whiteSpace=wrap;align=center;spacingBottom=0;labelPosition=center;verticalLabelPosition=top;verticalAlign=top;labelBackgroundColor=none;" parent="1" vertex="1">
          <mxGeometry x="-150" y="140" width="250" height="630" as="geometry" />
        </mxCell>
        <mxCell id="CRshSJ_s5ZqZg1Ph7NOT-2" value="" style="shape=module;jettyWidth=8;jettyHeight=4;" parent="CRshSJ_s5ZqZg1Ph7NOT-1" vertex="1">
          <mxGeometry x="1" width="20" height="20" relative="1" as="geometry">
            <mxPoint x="-27" y="7" as="offset" />
          </mxGeometry>
        </mxCell>
        <mxCell id="CRshSJ_s5ZqZg1Ph7NOT-3" value="«external»&lt;br&gt;&lt;b&gt;Hlavný bankový systém&lt;/b&gt;" style="html=1;dropTarget=0;whiteSpace=wrap;labelPosition=center;verticalLabelPosition=middle;align=center;verticalAlign=middle;" parent="1" vertex="1">
          <mxGeometry x="-125" y="220" width="180" height="50" as="geometry" />
        </mxCell>
        <mxCell id="CRshSJ_s5ZqZg1Ph7NOT-4" value="" style="shape=module;jettyWidth=8;jettyHeight=4;" parent="CRshSJ_s5ZqZg1Ph7NOT-3" vertex="1">
          <mxGeometry x="1" width="20" height="20" relative="1" as="geometry">
            <mxPoint x="-27" y="7" as="offset" />
          </mxGeometry>
        </mxCell>
        <mxCell id="CRshSJ_s5ZqZg1Ph7NOT-7" value="&lt;div&gt;&lt;span style=&quot;text-align: start; white-space: normal;&quot; data-end=&quot;391&quot; data-start=&quot;360&quot;&gt;«component»&lt;/span&gt;&lt;b&gt;&lt;br&gt;&lt;/b&gt;&lt;/div&gt;&lt;b&gt;Externé systémy&lt;/b&gt;" style="text;html=1;align=center;verticalAlign=middle;resizable=0;points=[];autosize=1;strokeColor=none;fillColor=none;" parent="1" vertex="1">
          <mxGeometry x="-95" y="155" width="120" height="40" as="geometry" />
        </mxCell>
        <mxCell id="CRshSJ_s5ZqZg1Ph7NOT-8" value="«external»&lt;br&gt;&lt;b&gt;Platobné karty&lt;/b&gt;" style="html=1;dropTarget=0;whiteSpace=wrap;labelPosition=center;verticalLabelPosition=middle;align=center;verticalAlign=middle;" parent="1" vertex="1">
          <mxGeometry x="-120" y="290" width="180" height="50" as="geometry" />
        </mxCell>
        <mxCell id="CRshSJ_s5ZqZg1Ph7NOT-9" value="" style="shape=module;jettyWidth=8;jettyHeight=4;" parent="CRshSJ_s5ZqZg1Ph7NOT-8" vertex="1">
          <mxGeometry x="1" width="20" height="20" relative="1" as="geometry">
            <mxPoint x="-27" y="7" as="offset" />
          </mxGeometry>
        </mxCell>
        <mxCell id="CRshSJ_s5ZqZg1Ph7NOT-10" value="" style="html=1;dropTarget=0;whiteSpace=wrap;" parent="1" vertex="1">
          <mxGeometry x="1070" y="240" width="180" height="330" as="geometry" />
        </mxCell>
        <mxCell id="CRshSJ_s5ZqZg1Ph7NOT-11" value="" style="shape=module;jettyWidth=8;jettyHeight=4;" parent="CRshSJ_s5ZqZg1Ph7NOT-10" vertex="1">
          <mxGeometry x="1" width="20" height="20" relative="1" as="geometry">
            <mxPoint x="-27" y="7" as="offset" />
          </mxGeometry>
        </mxCell>
        <mxCell id="CRshSJ_s5ZqZg1Ph7NOT-12" value="&lt;b&gt;Dátová vsrtva&lt;/b&gt;" style="text;html=1;align=center;verticalAlign=middle;resizable=0;points=[];autosize=1;strokeColor=none;fillColor=none;" parent="1" vertex="1">
          <mxGeometry x="1110" y="300" width="100" height="30" as="geometry" />
        </mxCell>
        <mxCell id="CRshSJ_s5ZqZg1Ph7NOT-13" value="&lt;div&gt;«database»&lt;/div&gt;&lt;div&gt;Klientska databáza&lt;/div&gt;&lt;div&gt;(PostgreSQL)&lt;/div&gt;" style="html=1;dropTarget=0;whiteSpace=wrap;" parent="1" vertex="1">
          <mxGeometry x="1090" y="360" width="140" height="70" as="geometry" />
        </mxCell>
        <mxCell id="CRshSJ_s5ZqZg1Ph7NOT-14" value="" style="shape=module;jettyWidth=8;jettyHeight=4;" parent="CRshSJ_s5ZqZg1Ph7NOT-13" vertex="1">
          <mxGeometry x="1" width="20" height="20" relative="1" as="geometry">
            <mxPoint x="-27" y="7" as="offset" />
          </mxGeometry>
        </mxCell>
        <mxCell id="CRshSJ_s5ZqZg1Ph7NOT-15" value="«external»&lt;br&gt;&lt;b&gt;Sociálna poisťovňa&lt;/b&gt;" style="html=1;dropTarget=0;whiteSpace=wrap;labelPosition=center;verticalLabelPosition=middle;align=center;verticalAlign=middle;" parent="1" vertex="1">
          <mxGeometry x="-120" y="360" width="180" height="50" as="geometry" />
        </mxCell>
        <mxCell id="CRshSJ_s5ZqZg1Ph7NOT-16" value="" style="shape=module;jettyWidth=8;jettyHeight=4;" parent="CRshSJ_s5ZqZg1Ph7NOT-15" vertex="1">
          <mxGeometry x="1" width="20" height="20" relative="1" as="geometry">
            <mxPoint x="-27" y="7" as="offset" />
          </mxGeometry>
        </mxCell>
        <mxCell id="CRshSJ_s5ZqZg1Ph7NOT-17" value="&lt;span style=&quot;text-align: start;&quot; data-end=&quot;717&quot; data-start=&quot;703&quot;&gt;«database»&lt;/span&gt;&lt;br&gt;&lt;div&gt;&lt;strong style=&quot;text-align: start;&quot; data-end=&quot;518&quot; data-start=&quot;446&quot;&gt;Databáza stratených a odcudzených dokladov (MV SR)&lt;/strong&gt;&lt;div&gt;&lt;span style=&quot;caret-color: rgba(0, 0, 0, 0); color: rgba(0, 0, 0, 0); font-family: monospace; font-size: 0px; text-align: start; white-space: nowrap;&quot;&gt;%3CmxGraphModel%3E%3Croot%3E%3CmxCell%20id%3D%220%22%2F%3E%3CmxCell%20id%3D%221%22%20parent%3D%220%22%2F%3E%3CmxCell%20id%3D%222%22%20value%3D%22%C2%ABexternal%C2%BB%26lt%3Bbr%26gt%3B%26lt%3Bb%26gt%3BSoci%C3%A1lna%20pois%C5%A5ov%C5%88a%26lt%3B%2Fb%26gt%3B%22%20style%3D%22html%3D1%3BdropTarget%3D0%3BwhiteSpace%3Dwrap%3BlabelPosition%3Dcenter%3BverticalLabelPosition%3Dmiddle%3Balign%3Dcenter%3BverticalAlign%3Dmiddle%3B%22%20vertex%3D%221%22%20parent%3D%221%22%3E%3CmxGeometry%20x%3D%2250%22%20y%3D%22370%22%20width%3D%22180%22%20height%3D%2250%22%20as%3D%22geometry%22%2F%3E%3C%2FmxCell%3E%3CmxCell%20id%3D%223%22%20value%3D%22%22%20style%3D%22shape%3Dmodule%3BjettyWidth%3D8%3BjettyHeight%3D4%3B%22%20vertex%3D%221%22%20parent%3D%222%22%3E%3CmxGeometry%20x%3D%221%22%20width%3D%2220%22%20height%3D%2220%22%20relative%3D%221%22%20as%3D%22geometry%22%3E%3CmxPoint%20x%3D%22-27%22%20y%3D%227%22%20as%3D%22offset%22%2F%3E%3C%2FmxGeometry%3E%3C%2FmxCell%3E%3C%2Froot%3E%3C%2FmxGraphModel%3E&lt;/span&gt;&lt;/div&gt;&lt;/div&gt;" style="html=1;dropTarget=0;whiteSpace=wrap;labelPosition=center;verticalLabelPosition=middle;align=center;verticalAlign=middle;" parent="1" vertex="1">
          <mxGeometry x="-120" y="430" width="180" height="100" as="geometry" />
        </mxCell>
        <mxCell id="CRshSJ_s5ZqZg1Ph7NOT-18" value="" style="shape=module;jettyWidth=8;jettyHeight=4;" parent="CRshSJ_s5ZqZg1Ph7NOT-17" vertex="1">
          <mxGeometry x="1" width="20" height="20" relative="1" as="geometry">
            <mxPoint x="-27" y="7" as="offset" />
          </mxGeometry>
        </mxCell>
        <mxCell id="CRshSJ_s5ZqZg1Ph7NOT-19" value="«external»&lt;br&gt;&lt;b&gt;Black list&amp;nbsp;banks&lt;/b&gt;" style="html=1;dropTarget=0;whiteSpace=wrap;labelPosition=center;verticalLabelPosition=middle;align=center;verticalAlign=middle;" parent="1" vertex="1">
          <mxGeometry x="-120" y="550" width="180" height="50" as="geometry" />
        </mxCell>
        <mxCell id="CRshSJ_s5ZqZg1Ph7NOT-20" value="" style="shape=module;jettyWidth=8;jettyHeight=4;" parent="CRshSJ_s5ZqZg1Ph7NOT-19" vertex="1">
          <mxGeometry x="1" width="20" height="20" relative="1" as="geometry">
            <mxPoint x="-27" y="7" as="offset" />
          </mxGeometry>
        </mxCell>
        <mxCell id="CRshSJ_s5ZqZg1Ph7NOT-21" value="&lt;span style=&quot;text-align: start;&quot;&gt;&lt;font&gt;«external system»&lt;/font&gt;&lt;/span&gt;&lt;div&gt;&lt;span style=&quot;text-align: start;&quot;&gt;&lt;font&gt;&lt;b&gt;Centrálny úverový register (SRBI)&lt;/b&gt;&lt;/font&gt;&lt;/span&gt;&lt;/div&gt;" style="html=1;dropTarget=0;whiteSpace=wrap;labelPosition=center;verticalLabelPosition=middle;align=center;verticalAlign=middle;" parent="1" vertex="1">
          <mxGeometry x="-120" y="620" width="180" height="100" as="geometry" />
        </mxCell>
        <mxCell id="CRshSJ_s5ZqZg1Ph7NOT-22" value="" style="shape=module;jettyWidth=8;jettyHeight=4;" parent="CRshSJ_s5ZqZg1Ph7NOT-21" vertex="1">
          <mxGeometry x="1" width="20" height="20" relative="1" as="geometry">
            <mxPoint x="-27" y="7" as="offset" />
          </mxGeometry>
        </mxCell>
        <mxCell id="CRshSJ_s5ZqZg1Ph7NOT-24" value="«AngularJS»&lt;br&gt;&lt;b&gt;Prezentačná vrstva&lt;/b&gt;" style="html=1;dropTarget=0;whiteSpace=wrap;" parent="1" vertex="1">
          <mxGeometry x="-140" y="-80" width="230" height="170" as="geometry" />
        </mxCell>
        <mxCell id="CRshSJ_s5ZqZg1Ph7NOT-25" value="" style="shape=module;jettyWidth=8;jettyHeight=4;" parent="CRshSJ_s5ZqZg1Ph7NOT-24" vertex="1">
          <mxGeometry x="1" width="20" height="20" relative="1" as="geometry">
            <mxPoint x="-27" y="7" as="offset" />
          </mxGeometry>
        </mxCell>
        <mxCell id="CRshSJ_s5ZqZg1Ph7NOT-26" value="«REST WS»&lt;br&gt;&lt;b&gt;Servisná vrstva&lt;/b&gt;" style="html=1;dropTarget=0;whiteSpace=wrap;" parent="1" vertex="1">
          <mxGeometry x="220" y="-45" width="180" height="820" as="geometry" />
        </mxCell>
        <mxCell id="CRshSJ_s5ZqZg1Ph7NOT-27" value="" style="shape=module;jettyWidth=8;jettyHeight=4;" parent="CRshSJ_s5ZqZg1Ph7NOT-26" vertex="1">
          <mxGeometry x="1" width="20" height="20" relative="1" as="geometry">
            <mxPoint x="-27" y="7" as="offset" />
          </mxGeometry>
        </mxCell>
        <mxCell id="CRshSJ_s5ZqZg1Ph7NOT-28" value="" style="rounded=0;orthogonalLoop=1;jettySize=auto;html=1;endArrow=halfCircle;endFill=0;endSize=6;strokeWidth=1;sketch=0;exitX=1.001;exitY=0.612;exitDx=0;exitDy=0;exitPerimeter=0;" parent="1" source="CRshSJ_s5ZqZg1Ph7NOT-24" target="CRshSJ_s5ZqZg1Ph7NOT-30" edge="1">
          <mxGeometry relative="1" as="geometry">
            <mxPoint x="170" y="-25" as="sourcePoint" />
          </mxGeometry>
        </mxCell>
        <mxCell id="CRshSJ_s5ZqZg1Ph7NOT-29" value="" style="rounded=0;orthogonalLoop=1;jettySize=auto;html=1;endArrow=oval;endFill=0;sketch=0;sourcePerimeterSpacing=0;targetPerimeterSpacing=0;endSize=10;exitX=-0.003;exitY=0.086;exitDx=0;exitDy=0;exitPerimeter=0;" parent="1" source="CRshSJ_s5ZqZg1Ph7NOT-26" target="CRshSJ_s5ZqZg1Ph7NOT-30" edge="1">
          <mxGeometry relative="1" as="geometry">
            <mxPoint x="240" y="20" as="sourcePoint" />
          </mxGeometry>
        </mxCell>
        <mxCell id="CRshSJ_s5ZqZg1Ph7NOT-30" value="" style="ellipse;whiteSpace=wrap;html=1;align=center;aspect=fixed;fillColor=none;strokeColor=none;resizable=0;perimeter=centerPerimeter;rotatable=0;allowArrows=0;points=[];outlineConnect=1;" parent="1" vertex="1">
          <mxGeometry x="150" y="20" width="10" height="10" as="geometry" />
        </mxCell>
        <mxCell id="CRshSJ_s5ZqZg1Ph7NOT-32" value="&amp;lt;&amp;lt;REST&amp;gt;&amp;gt;&lt;div&gt;&lt;br&gt;&lt;/div&gt;" style="text;html=1;align=center;verticalAlign=middle;resizable=0;points=[];autosize=1;strokeColor=none;fillColor=none;" parent="1" vertex="1">
          <mxGeometry x="115" y="-15" width="80" height="40" as="geometry" />
        </mxCell>
        <mxCell id="CRshSJ_s5ZqZg1Ph7NOT-33" value="" style="rounded=0;orthogonalLoop=1;jettySize=auto;html=1;endArrow=halfCircle;endFill=0;endSize=6;strokeWidth=1;sketch=0;exitX=0.003;exitY=0.354;exitDx=0;exitDy=0;exitPerimeter=0;" parent="1" source="CRshSJ_s5ZqZg1Ph7NOT-26" target="CRshSJ_s5ZqZg1Ph7NOT-35" edge="1">
          <mxGeometry relative="1" as="geometry">
            <mxPoint x="170" y="245" as="sourcePoint" />
          </mxGeometry>
        </mxCell>
        <mxCell id="CRshSJ_s5ZqZg1Ph7NOT-34" value="" style="rounded=0;orthogonalLoop=1;jettySize=auto;html=1;endArrow=oval;endFill=0;sketch=0;sourcePerimeterSpacing=0;targetPerimeterSpacing=0;endSize=10;exitX=1;exitY=0.5;exitDx=0;exitDy=0;" parent="1" source="CRshSJ_s5ZqZg1Ph7NOT-3" target="CRshSJ_s5ZqZg1Ph7NOT-35" edge="1">
          <mxGeometry relative="1" as="geometry">
            <mxPoint x="130" y="245" as="sourcePoint" />
          </mxGeometry>
        </mxCell>
        <mxCell id="CRshSJ_s5ZqZg1Ph7NOT-35" value="" style="ellipse;whiteSpace=wrap;html=1;align=center;aspect=fixed;fillColor=none;strokeColor=none;resizable=0;perimeter=centerPerimeter;rotatable=0;allowArrows=0;points=[];outlineConnect=1;" parent="1" vertex="1">
          <mxGeometry x="145" y="240" width="10" height="10" as="geometry" />
        </mxCell>
        <mxCell id="CRshSJ_s5ZqZg1Ph7NOT-36" value="MQ&lt;div&gt;&lt;br&gt;&lt;/div&gt;" style="text;html=1;align=center;verticalAlign=middle;resizable=0;points=[];autosize=1;strokeColor=none;fillColor=none;" parent="1" vertex="1">
          <mxGeometry x="135" y="210" width="40" height="40" as="geometry" />
        </mxCell>
        <mxCell id="CRshSJ_s5ZqZg1Ph7NOT-37" value="" style="rounded=0;orthogonalLoop=1;jettySize=auto;html=1;endArrow=halfCircle;endFill=0;endSize=6;strokeWidth=1;sketch=0;exitX=0;exitY=0.439;exitDx=0;exitDy=0;exitPerimeter=0;" parent="1" source="CRshSJ_s5ZqZg1Ph7NOT-26" target="CRshSJ_s5ZqZg1Ph7NOT-39" edge="1">
          <mxGeometry relative="1" as="geometry">
            <mxPoint x="175" y="325" as="sourcePoint" />
          </mxGeometry>
        </mxCell>
        <mxCell id="CRshSJ_s5ZqZg1Ph7NOT-38" value="" style="rounded=0;orthogonalLoop=1;jettySize=auto;html=1;endArrow=oval;endFill=0;sketch=0;sourcePerimeterSpacing=0;targetPerimeterSpacing=0;endSize=10;exitX=1;exitY=0.5;exitDx=0;exitDy=0;" parent="1" source="CRshSJ_s5ZqZg1Ph7NOT-8" target="CRshSJ_s5ZqZg1Ph7NOT-39" edge="1">
          <mxGeometry relative="1" as="geometry">
            <mxPoint x="135" y="325" as="sourcePoint" />
          </mxGeometry>
        </mxCell>
        <mxCell id="CRshSJ_s5ZqZg1Ph7NOT-39" value="" style="ellipse;whiteSpace=wrap;html=1;align=center;aspect=fixed;fillColor=none;strokeColor=none;resizable=0;perimeter=centerPerimeter;rotatable=0;allowArrows=0;points=[];outlineConnect=1;" parent="1" vertex="1">
          <mxGeometry x="150" y="310" width="10" height="10" as="geometry" />
        </mxCell>
        <mxCell id="CRshSJ_s5ZqZg1Ph7NOT-40" value="&lt;div&gt;JMS&lt;/div&gt;" style="text;html=1;align=center;verticalAlign=middle;resizable=0;points=[];autosize=1;strokeColor=none;fillColor=none;" parent="1" vertex="1">
          <mxGeometry x="130" y="285" width="50" height="30" as="geometry" />
        </mxCell>
        <mxCell id="CRshSJ_s5ZqZg1Ph7NOT-42" value="" style="rounded=0;orthogonalLoop=1;jettySize=auto;html=1;endArrow=halfCircle;endFill=0;endSize=6;strokeWidth=1;sketch=0;exitX=0.001;exitY=0.524;exitDx=0;exitDy=0;exitPerimeter=0;" parent="1" target="CRshSJ_s5ZqZg1Ph7NOT-44" edge="1" source="CRshSJ_s5ZqZg1Ph7NOT-26">
          <mxGeometry relative="1" as="geometry">
            <mxPoint x="217" y="395" as="sourcePoint" />
          </mxGeometry>
        </mxCell>
        <mxCell id="CRshSJ_s5ZqZg1Ph7NOT-43" value="" style="rounded=0;orthogonalLoop=1;jettySize=auto;html=1;endArrow=oval;endFill=0;sketch=0;sourcePerimeterSpacing=0;targetPerimeterSpacing=0;endSize=10;exitX=1;exitY=0.5;exitDx=0;exitDy=0;" parent="1" source="CRshSJ_s5ZqZg1Ph7NOT-15" target="CRshSJ_s5ZqZg1Ph7NOT-44" edge="1">
          <mxGeometry relative="1" as="geometry">
            <mxPoint x="135" y="395" as="sourcePoint" />
          </mxGeometry>
        </mxCell>
        <mxCell id="CRshSJ_s5ZqZg1Ph7NOT-44" value="" style="ellipse;whiteSpace=wrap;html=1;align=center;aspect=fixed;fillColor=none;strokeColor=none;resizable=0;perimeter=centerPerimeter;rotatable=0;allowArrows=0;points=[];outlineConnect=1;" parent="1" vertex="1">
          <mxGeometry x="150" y="380" width="10" height="10" as="geometry" />
        </mxCell>
        <mxCell id="CRshSJ_s5ZqZg1Ph7NOT-45" value="&lt;div&gt;SOAP&lt;/div&gt;" style="text;html=1;align=center;verticalAlign=middle;resizable=0;points=[];autosize=1;strokeColor=none;fillColor=none;" parent="1" vertex="1">
          <mxGeometry x="125" y="350" width="60" height="30" as="geometry" />
        </mxCell>
        <mxCell id="CRshSJ_s5ZqZg1Ph7NOT-46" value="" style="rounded=0;orthogonalLoop=1;jettySize=auto;html=1;endArrow=halfCircle;endFill=0;endSize=6;strokeWidth=1;sketch=0;exitX=0.003;exitY=0.641;exitDx=0;exitDy=0;exitPerimeter=0;" parent="1" source="CRshSJ_s5ZqZg1Ph7NOT-26" target="CRshSJ_s5ZqZg1Ph7NOT-48" edge="1">
          <mxGeometry relative="1" as="geometry">
            <mxPoint x="175" y="480" as="sourcePoint" />
          </mxGeometry>
        </mxCell>
        <mxCell id="CRshSJ_s5ZqZg1Ph7NOT-47" value="" style="rounded=0;orthogonalLoop=1;jettySize=auto;html=1;endArrow=oval;endFill=0;sketch=0;sourcePerimeterSpacing=0;targetPerimeterSpacing=0;endSize=10;exitX=1;exitY=0.5;exitDx=0;exitDy=0;" parent="1" source="CRshSJ_s5ZqZg1Ph7NOT-17" target="CRshSJ_s5ZqZg1Ph7NOT-48" edge="1">
          <mxGeometry relative="1" as="geometry">
            <mxPoint x="135" y="480" as="sourcePoint" />
          </mxGeometry>
        </mxCell>
        <mxCell id="CRshSJ_s5ZqZg1Ph7NOT-48" value="" style="ellipse;whiteSpace=wrap;html=1;align=center;aspect=fixed;fillColor=none;strokeColor=none;resizable=0;perimeter=centerPerimeter;rotatable=0;allowArrows=0;points=[];outlineConnect=1;" parent="1" vertex="1">
          <mxGeometry x="150" y="475" width="10" height="10" as="geometry" />
        </mxCell>
        <mxCell id="CRshSJ_s5ZqZg1Ph7NOT-49" value="&lt;div&gt;SOAP&lt;/div&gt;" style="text;html=1;align=center;verticalAlign=middle;resizable=0;points=[];autosize=1;strokeColor=none;fillColor=none;" parent="1" vertex="1">
          <mxGeometry x="125" y="445" width="60" height="30" as="geometry" />
        </mxCell>
        <mxCell id="CRshSJ_s5ZqZg1Ph7NOT-50" value="" style="rounded=0;orthogonalLoop=1;jettySize=auto;html=1;endArrow=halfCircle;endFill=0;endSize=6;strokeWidth=1;sketch=0;exitX=-0.002;exitY=0.756;exitDx=0;exitDy=0;exitPerimeter=0;" parent="1" source="CRshSJ_s5ZqZg1Ph7NOT-26" target="CRshSJ_s5ZqZg1Ph7NOT-52" edge="1">
          <mxGeometry relative="1" as="geometry">
            <mxPoint x="175" y="585" as="sourcePoint" />
          </mxGeometry>
        </mxCell>
        <mxCell id="CRshSJ_s5ZqZg1Ph7NOT-51" value="" style="rounded=0;orthogonalLoop=1;jettySize=auto;html=1;endArrow=oval;endFill=0;sketch=0;sourcePerimeterSpacing=0;targetPerimeterSpacing=0;endSize=10;exitX=1;exitY=0.5;exitDx=0;exitDy=0;" parent="1" source="CRshSJ_s5ZqZg1Ph7NOT-19" target="CRshSJ_s5ZqZg1Ph7NOT-52" edge="1">
          <mxGeometry relative="1" as="geometry">
            <mxPoint x="135" y="585" as="sourcePoint" />
          </mxGeometry>
        </mxCell>
        <mxCell id="CRshSJ_s5ZqZg1Ph7NOT-52" value="" style="ellipse;whiteSpace=wrap;html=1;align=center;aspect=fixed;fillColor=none;strokeColor=none;resizable=0;perimeter=centerPerimeter;rotatable=0;allowArrows=0;points=[];outlineConnect=1;" parent="1" vertex="1">
          <mxGeometry x="150" y="570" width="10" height="10" as="geometry" />
        </mxCell>
        <mxCell id="CRshSJ_s5ZqZg1Ph7NOT-53" value="" style="rounded=0;orthogonalLoop=1;jettySize=auto;html=1;endArrow=halfCircle;endFill=0;endSize=6;strokeWidth=1;sketch=0;" parent="1" target="CRshSJ_s5ZqZg1Ph7NOT-55" edge="1">
          <mxGeometry relative="1" as="geometry">
            <mxPoint x="220" y="670" as="sourcePoint" />
          </mxGeometry>
        </mxCell>
        <mxCell id="CRshSJ_s5ZqZg1Ph7NOT-54" value="" style="rounded=0;orthogonalLoop=1;jettySize=auto;html=1;endArrow=oval;endFill=0;sketch=0;sourcePerimeterSpacing=0;targetPerimeterSpacing=0;endSize=10;exitX=1;exitY=0.5;exitDx=0;exitDy=0;" parent="1" source="CRshSJ_s5ZqZg1Ph7NOT-21" target="CRshSJ_s5ZqZg1Ph7NOT-55" edge="1">
          <mxGeometry relative="1" as="geometry">
            <mxPoint x="135" y="675" as="sourcePoint" />
          </mxGeometry>
        </mxCell>
        <mxCell id="CRshSJ_s5ZqZg1Ph7NOT-55" value="" style="ellipse;whiteSpace=wrap;html=1;align=center;aspect=fixed;fillColor=none;strokeColor=none;resizable=0;perimeter=centerPerimeter;rotatable=0;allowArrows=0;points=[];outlineConnect=1;" parent="1" vertex="1">
          <mxGeometry x="150" y="665" width="10" height="10" as="geometry" />
        </mxCell>
        <mxCell id="CRshSJ_s5ZqZg1Ph7NOT-56" value="&lt;div&gt;SOAP&lt;/div&gt;" style="text;html=1;align=center;verticalAlign=middle;resizable=0;points=[];autosize=1;strokeColor=none;fillColor=none;" parent="1" vertex="1">
          <mxGeometry x="125" y="540" width="60" height="30" as="geometry" />
        </mxCell>
        <mxCell id="CRshSJ_s5ZqZg1Ph7NOT-57" value="&lt;div&gt;SOAP&lt;/div&gt;" style="text;html=1;align=center;verticalAlign=middle;resizable=0;points=[];autosize=1;strokeColor=none;fillColor=none;" parent="1" vertex="1">
          <mxGeometry x="125" y="635" width="60" height="30" as="geometry" />
        </mxCell>
        <mxCell id="CRshSJ_s5ZqZg1Ph7NOT-59" value="" style="html=1;dropTarget=0;whiteSpace=wrap;labelPosition=center;verticalLabelPosition=middle;align=center;verticalAlign=middle;" parent="1" vertex="1">
          <mxGeometry x="520" y="-45" width="160" height="815" as="geometry" />
        </mxCell>
        <mxCell id="CRshSJ_s5ZqZg1Ph7NOT-60" value="" style="shape=module;jettyWidth=8;jettyHeight=4;" parent="CRshSJ_s5ZqZg1Ph7NOT-59" vertex="1">
          <mxGeometry x="1" width="20" height="20" relative="1" as="geometry">
            <mxPoint x="-27" y="7" as="offset" />
          </mxGeometry>
        </mxCell>
        <mxCell id="CRshSJ_s5ZqZg1Ph7NOT-61" value="" style="rounded=0;orthogonalLoop=1;jettySize=auto;html=1;endArrow=halfCircle;endFill=0;endSize=6;strokeWidth=1;sketch=0;exitX=0.996;exitY=0.532;exitDx=0;exitDy=0;exitPerimeter=0;" parent="1" source="CRshSJ_s5ZqZg1Ph7NOT-26" target="CRshSJ_s5ZqZg1Ph7NOT-63" edge="1">
          <mxGeometry relative="1" as="geometry">
            <mxPoint x="450" y="355" as="sourcePoint" />
          </mxGeometry>
        </mxCell>
        <mxCell id="CRshSJ_s5ZqZg1Ph7NOT-62" value="" style="rounded=0;orthogonalLoop=1;jettySize=auto;html=1;endArrow=oval;endFill=0;sketch=0;sourcePerimeterSpacing=0;targetPerimeterSpacing=0;endSize=10;exitX=0;exitY=0.535;exitDx=0;exitDy=0;exitPerimeter=0;" parent="1" source="CRshSJ_s5ZqZg1Ph7NOT-59" target="CRshSJ_s5ZqZg1Ph7NOT-63" edge="1">
          <mxGeometry relative="1" as="geometry">
            <mxPoint x="510" y="395" as="sourcePoint" />
          </mxGeometry>
        </mxCell>
        <mxCell id="CRshSJ_s5ZqZg1Ph7NOT-63" value="" style="ellipse;whiteSpace=wrap;html=1;align=center;aspect=fixed;fillColor=none;strokeColor=none;resizable=0;perimeter=centerPerimeter;rotatable=0;allowArrows=0;points=[];outlineConnect=1;" parent="1" vertex="1">
          <mxGeometry x="453" y="386" width="10" height="10" as="geometry" />
        </mxCell>
        <mxCell id="CRshSJ_s5ZqZg1Ph7NOT-64" value="&amp;lt;&amp;lt;JavaCall&amp;gt;&amp;gt;" style="text;html=1;align=center;verticalAlign=middle;resizable=0;points=[];autosize=1;strokeColor=none;fillColor=none;" parent="1" vertex="1">
          <mxGeometry x="408" y="352.5" width="100" height="30" as="geometry" />
        </mxCell>
        <mxCell id="CRshSJ_s5ZqZg1Ph7NOT-65" value="" style="html=1;dropTarget=0;whiteSpace=wrap;" parent="1" vertex="1">
          <mxGeometry x="780" y="-40" width="160" height="815" as="geometry" />
        </mxCell>
        <mxCell id="CRshSJ_s5ZqZg1Ph7NOT-66" value="" style="shape=module;jettyWidth=8;jettyHeight=4;" parent="CRshSJ_s5ZqZg1Ph7NOT-65" vertex="1">
          <mxGeometry x="1" width="20" height="20" relative="1" as="geometry">
            <mxPoint x="-27" y="7" as="offset" />
          </mxGeometry>
        </mxCell>
        <mxCell id="CRshSJ_s5ZqZg1Ph7NOT-67" value="&lt;div&gt;&lt;span style=&quot;text-align: start; white-space: normal;&quot; data-end=&quot;391&quot; data-start=&quot;360&quot;&gt;«component»&lt;/span&gt;&lt;b&gt;&lt;br&gt;&lt;/b&gt;&lt;/div&gt;&lt;b&gt;Vrstva dátových&amp;nbsp;služeb&lt;/b&gt;" style="text;html=1;align=center;verticalAlign=middle;resizable=0;points=[];autosize=1;strokeColor=none;fillColor=none;" parent="1" vertex="1">
          <mxGeometry x="780" y="-15" width="160" height="40" as="geometry" />
        </mxCell>
        <mxCell id="CRshSJ_s5ZqZg1Ph7NOT-68" value="«JPA»&lt;br&gt;&lt;b&gt;Objektovo&amp;nbsp;&lt;/b&gt;&lt;div&gt;&lt;b&gt;relačné&amp;nbsp;&lt;/b&gt;&lt;/div&gt;&lt;div&gt;&lt;b&gt;mapovanie&lt;/b&gt;&lt;/div&gt;" style="html=1;dropTarget=0;whiteSpace=wrap;" parent="1" vertex="1">
          <mxGeometry x="800" y="331.5" width="120" height="98.5" as="geometry" />
        </mxCell>
        <mxCell id="CRshSJ_s5ZqZg1Ph7NOT-69" value="" style="shape=module;jettyWidth=8;jettyHeight=4;" parent="CRshSJ_s5ZqZg1Ph7NOT-68" vertex="1">
          <mxGeometry x="1" width="20" height="20" relative="1" as="geometry">
            <mxPoint x="-27" y="7" as="offset" />
          </mxGeometry>
        </mxCell>
        <mxCell id="CRshSJ_s5ZqZg1Ph7NOT-72" value="" style="rounded=0;orthogonalLoop=1;jettySize=auto;html=1;endArrow=halfCircle;endFill=0;endSize=6;strokeWidth=1;sketch=0;" parent="1" edge="1">
          <mxGeometry relative="1" as="geometry">
            <mxPoint x="680" y="420" as="sourcePoint" />
            <mxPoint x="720" y="420" as="targetPoint" />
          </mxGeometry>
        </mxCell>
        <mxCell id="CRshSJ_s5ZqZg1Ph7NOT-73" value="" style="rounded=0;orthogonalLoop=1;jettySize=auto;html=1;endArrow=oval;endFill=0;sketch=0;sourcePerimeterSpacing=0;targetPerimeterSpacing=0;endSize=10;exitX=0.011;exitY=0.564;exitDx=0;exitDy=0;exitPerimeter=0;" parent="1" source="CRshSJ_s5ZqZg1Ph7NOT-65" edge="1">
          <mxGeometry relative="1" as="geometry">
            <mxPoint x="556" y="393" as="sourcePoint" />
            <mxPoint x="720" y="420" as="targetPoint" />
          </mxGeometry>
        </mxCell>
        <mxCell id="CRshSJ_s5ZqZg1Ph7NOT-75" value="&amp;lt;&amp;lt;JavaCall&amp;gt;&amp;gt;" style="text;html=1;align=center;verticalAlign=middle;resizable=0;points=[];autosize=1;strokeColor=none;fillColor=none;" parent="1" vertex="1">
          <mxGeometry x="680" y="382.5" width="100" height="30" as="geometry" />
        </mxCell>
        <mxCell id="CRshSJ_s5ZqZg1Ph7NOT-76" value="" style="rounded=0;orthogonalLoop=1;jettySize=auto;html=1;endArrow=halfCircle;endFill=0;endSize=6;strokeWidth=1;sketch=0;" parent="1" edge="1">
          <mxGeometry relative="1" as="geometry">
            <mxPoint x="940" y="390" as="sourcePoint" />
            <mxPoint x="1000" y="390" as="targetPoint" />
          </mxGeometry>
        </mxCell>
        <mxCell id="CRshSJ_s5ZqZg1Ph7NOT-77" value="" style="rounded=0;orthogonalLoop=1;jettySize=auto;html=1;endArrow=oval;endFill=0;sketch=0;sourcePerimeterSpacing=0;targetPerimeterSpacing=0;endSize=10;exitX=0;exitY=0.455;exitDx=0;exitDy=0;exitPerimeter=0;" parent="1" source="CRshSJ_s5ZqZg1Ph7NOT-10" edge="1">
          <mxGeometry relative="1" as="geometry">
            <mxPoint x="970" y="390" as="sourcePoint" />
            <mxPoint x="1000" y="390" as="targetPoint" />
          </mxGeometry>
        </mxCell>
        <mxCell id="CRshSJ_s5ZqZg1Ph7NOT-78" value="&amp;lt;&amp;lt;JDBC&amp;gt;&amp;gt;" style="text;html=1;align=center;verticalAlign=middle;resizable=0;points=[];autosize=1;strokeColor=none;fillColor=none;" parent="1" vertex="1">
          <mxGeometry x="960" y="352.5" width="80" height="30" as="geometry" />
        </mxCell>
        <mxCell id="CRshSJ_s5ZqZg1Ph7NOT-80" value="&lt;span style=&quot;white-space: normal;&quot;&gt;«EJB»&lt;/span&gt;&lt;br style=&quot;white-space: normal;&quot;&gt;&lt;b style=&quot;white-space: normal;&quot;&gt;Doménová vrstva&lt;/b&gt;" style="text;html=1;align=center;verticalAlign=middle;resizable=0;points=[];autosize=1;strokeColor=none;fillColor=none;" parent="1" vertex="1">
          <mxGeometry x="540" y="5" width="120" height="40" as="geometry" />
        </mxCell>
        <mxCell id="CRshSJ_s5ZqZg1Ph7NOT-81" value="&lt;span style=&quot;text-align: start; font-size: medium;&quot;&gt;«domain» &lt;b&gt;Žiadosť o úver&lt;/b&gt;&lt;/span&gt;" style="html=1;dropTarget=0;whiteSpace=wrap;" parent="1" vertex="1">
          <mxGeometry x="537.5" y="110" width="125" height="70" as="geometry" />
        </mxCell>
        <mxCell id="CRshSJ_s5ZqZg1Ph7NOT-82" value="" style="shape=module;jettyWidth=8;jettyHeight=4;" parent="CRshSJ_s5ZqZg1Ph7NOT-81" vertex="1">
          <mxGeometry x="1" width="20" height="20" relative="1" as="geometry">
            <mxPoint x="-27" y="7" as="offset" />
          </mxGeometry>
        </mxCell>
        <mxCell id="CRshSJ_s5ZqZg1Ph7NOT-83" value="&lt;span style=&quot;text-align: start; font-size: medium;&quot;&gt;«domain»&amp;nbsp;&lt;/span&gt;&lt;div&gt;&lt;span style=&quot;text-align: start; font-size: medium;&quot;&gt;&lt;b&gt;Klient&lt;/b&gt;&lt;/span&gt;&lt;br&gt;&lt;/div&gt;" style="html=1;dropTarget=0;whiteSpace=wrap;" parent="1" vertex="1">
          <mxGeometry x="535" y="220" width="125" height="70" as="geometry" />
        </mxCell>
        <mxCell id="CRshSJ_s5ZqZg1Ph7NOT-84" value="" style="shape=module;jettyWidth=8;jettyHeight=4;" parent="CRshSJ_s5ZqZg1Ph7NOT-83" vertex="1">
          <mxGeometry x="1" width="20" height="20" relative="1" as="geometry">
            <mxPoint x="-27" y="7" as="offset" />
          </mxGeometry>
        </mxCell>
        <mxCell id="CRshSJ_s5ZqZg1Ph7NOT-85" value="&lt;span style=&quot;text-align: start; font-size: medium;&quot;&gt;«domain»&amp;nbsp;&lt;/span&gt;&lt;div&gt;&lt;span style=&quot;text-align: start; font-size: medium;&quot;&gt;&lt;b&gt;Doklad o príjme&lt;/b&gt;&lt;/span&gt;&lt;br&gt;&lt;/div&gt;" style="html=1;dropTarget=0;whiteSpace=wrap;" parent="1" vertex="1">
          <mxGeometry x="537.5" y="340" width="125" height="70" as="geometry" />
        </mxCell>
        <mxCell id="CRshSJ_s5ZqZg1Ph7NOT-86" value="" style="shape=module;jettyWidth=8;jettyHeight=4;" parent="CRshSJ_s5ZqZg1Ph7NOT-85" vertex="1">
          <mxGeometry x="1" width="20" height="20" relative="1" as="geometry">
            <mxPoint x="-27" y="7" as="offset" />
          </mxGeometry>
        </mxCell>
      </root>
    </mxGraphModel>
  </diagram>
</mxfile>
